<svg version="1.1" xmlns="http://www.w3.org/2000/svg" xmlns:xlink="http://www.w3.org/1999/xlink" width="10" height="18" viewBox="0,0,142.22221,255.99536"><g fill="#d5621d" fill-rule="nonzero" stroke="none" stroke-width="1" stroke-linecap="butt" stroke-linejoin="miter" stroke-miterlimit="10" stroke-dasharray="" stroke-dashoffset="0" font-family="none" font-weight="none" font-size="none" text-anchor="none" style="mix-blend-mode: normal"><g transform="translate(0.50404,-0.10705) scale(14.22222,14.22222)"><path d="M9.38393,16.9548c0.23434,-0.2344 0.36599,-0.5523 0.36599,-0.8837c0,-0.3315 -0.13165,-0.6494 -0.36599,-0.8838l-6.1875,-6.18748l6.1875,-6.1875c0.2277,-0.23576 0.35369,-0.55151 0.35084,-0.87926c-0.00284,-0.32774 -0.1343,-0.64126 -0.36606,-0.87302c-0.23176,-0.23176 -0.54528,-0.36322 -0.87303,-0.36607c-0.32774,-0.00285 -0.6435,0.12314 -0.87925,0.35085l-7.07125,7.07125c-0.23434,0.23441 -0.36598,0.55229 -0.36598,0.88375c0,0.33145 0.13164,0.64934 0.36598,0.88375l7.07125,7.07123c0.23441,0.2344 0.5523,0.366 0.88375,0.366c0.33146,0 0.64934,-0.1316 0.88375,-0.366z"></path></g></g></svg>